<svg version="1.1" id="Layer_1" xmlns="http://www.w3.org/2000/svg" xmlns:xlink="http://www.w3.org/1999/xlink" x="0px" y="0px"
	 width="100%" viewBox="0 0 390 646" enable-background="new 0 0 390 646" xml:space="preserve">
<path fill="#000000" opacity="1.000000" stroke="none" 
	d="
M1.000000,256.000000 
	C1.000000,170.687134 1.000000,85.874268 1.000000,1.030703 
	C130.948151,1.030703 260.896332,1.030703 390.922241,1.030703 
	C390.922241,216.229507 390.922241,431.459045 390.922241,646.844299 
	C261.000122,646.844299 131.000092,646.844299 1.000000,646.844299 
	C1.000000,516.770386 1.000000,386.635193 1.000000,256.000000 
M73.239738,372.894714 
	C89.214294,367.066040 105.175774,361.201202 121.166077,355.416077 
	C157.138580,342.401611 193.120422,329.412933 229.109344,316.444031 
	C239.674515,312.636780 250.276291,308.931152 262.458618,304.612701 
	C254.697830,297.130188 247.812302,290.491577 240.710098,283.644012 
	C276.758270,262.754639 312.400818,242.100266 348.043365,221.445923 
	C347.839722,221.049637 347.636047,220.653351 347.432373,220.257065 
	C285.369934,241.776688 223.307465,263.296295 160.042770,285.232788 
	C167.491974,292.594574 174.063828,299.089325 180.726456,305.673767 
	C135.522034,330.888641 90.457573,356.025452 45.393116,381.162231 
	C45.560123,381.550812 45.727135,381.939362 45.894142,382.327942 
	C54.746086,379.213684 63.598030,376.099396 73.239738,372.894714 
M242.766617,174.216248 
	C292.436035,136.903793 286.181580,63.727356 246.862366,33.722599 
	C246.632965,38.010704 246.147720,41.552780 249.945709,45.020008 
	C285.279144,77.276100 282.482971,134.510361 244.593002,163.713593 
	C232.679474,172.895828 218.617447,176.939438 204.861542,181.758698 
	C200.412704,183.317307 198.482697,185.285233 200.151398,190.054810 
	C215.396072,188.270706 229.650589,183.816605 242.766617,174.216248 
M116.053268,94.362122 
	C114.290604,120.022598 121.387344,142.699753 139.020599,161.867462 
	C138.896393,158.308380 138.800323,154.340088 136.852570,151.781250 
	C118.939247,128.247482 113.802856,102.384201 124.237892,74.702690 
	C134.412872,47.711056 154.448486,31.099482 182.900299,25.202814 
	C188.670258,24.006987 193.282852,19.735184 193.692566,14.266022 
	C147.016525,17.948254 119.232750,56.057903 116.053268,94.362122 
z"/>
<path fill="#EC1C24" opacity="1.000000" stroke="none" 
	d="
M72.844856,372.939941 
	C63.598030,376.099396 54.746086,379.213684 45.894142,382.327942 
	C45.727135,381.939362 45.560123,381.550812 45.393116,381.162231 
	C90.457573,356.025452 135.522034,330.888641 180.726456,305.673767 
	C174.063828,299.089325 167.491974,292.594574 160.042770,285.232788 
	C223.307465,263.296295 285.369934,241.776688 347.432373,220.257065 
	C347.636047,220.653351 347.839722,221.049637 348.043365,221.445923 
	C312.400818,242.100266 276.758270,262.754639 240.710098,283.644012 
	C247.812302,290.491577 254.697830,297.130188 262.458618,304.612701 
	C250.276291,308.931152 239.674515,312.636780 229.109344,316.444031 
	C193.120422,329.412933 157.138580,342.401611 121.166077,355.416077 
	C105.175774,361.201202 89.214294,367.066040 72.844856,372.939941 
z"/>
<path fill="#F0F0F0" opacity="1.000000" stroke="none" 
	d="
M242.485260,174.437897 
	C229.650589,183.816605 215.396072,188.270706 200.151398,190.054810 
	C198.482697,185.285233 200.412704,183.317307 204.861542,181.758698 
	C218.617447,176.939438 232.679474,172.895828 244.593002,163.713593 
	C282.482971,134.510361 285.279144,77.276100 249.945709,45.020008 
	C246.147720,41.552780 246.632965,38.010704 246.862366,33.722599 
	C286.181580,63.727356 292.436035,136.903793 242.485260,174.437897 
z"/>
<path fill="#F0F0F1" opacity="1.000000" stroke="none" 
	d="
M116.093826,93.908661 
	C119.232750,56.057903 147.016525,17.948254 193.692566,14.266022 
	C193.282852,19.735184 188.670258,24.006987 182.900299,25.202814 
	C154.448486,31.099482 134.412872,47.711056 124.237892,74.702690 
	C113.802856,102.384201 118.939247,128.247482 136.852570,151.781250 
	C138.800323,154.340088 138.896393,158.308380 139.020599,161.867462 
	C121.387344,142.699753 114.290604,120.022598 116.093826,93.908661 
z"/>
</svg>